HIERARCHY
ROOT Hips
{
	OFFSET 1.277878 86.131134 4.395954
	CHANNELS 6 Xposition Yposition Zposition Zrotation Yrotation Xrotation 
	JOINT Spine
	{
		OFFSET -0.000000 8.814246 -2.080107
		CHANNELS 3 Zrotation Yrotation Xrotation
		JOINT Spine1
		{
			OFFSET -0.000000 8.844141 0.000000
			CHANNELS 3 Zrotation Yrotation Xrotation
			JOINT Spine2
			{
				OFFSET 0.000000 11.682268 0.000000
				CHANNELS 3 Zrotation Yrotation Xrotation
				JOINT Spine3
				{
					OFFSET -0.000000 11.746700 -0.000000
					CHANNELS 3 Zrotation Yrotation Xrotation
					JOINT Neck
					{
						OFFSET 0.000000 17.658264 0.000000
						CHANNELS 3 Zrotation Yrotation Xrotation
						JOINT Neck1
						{
							OFFSET -0.000000 5.101515 -0.000000
							CHANNELS 3 Zrotation Yrotation Xrotation
							JOINT Head
							{
								OFFSET 0.000000 5.101515 0.000000
								CHANNELS 3 Zrotation Yrotation Xrotation
								JOINT HeadEnd
								{
									OFFSET 0.000000 11.655085 0.000000
									CHANNELS 3 Zrotation Yrotation Xrotation
									End Site
									{
										OFFSET 0.000000 0.000000 0.000000
									}
								}
							}
						}
					}
					JOINT RightShoulder
					{
						OFFSET -2.625389 11.175210 -0.000000
						CHANNELS 3 Zrotation Yrotation Xrotation
						JOINT RightArm
						{
							OFFSET -0.000000 10.434715 0.000000
							CHANNELS 3 Zrotation Yrotation Xrotation
							JOINT RightForeArm
							{
								OFFSET -0.000000 29.628420 0.000000
								CHANNELS 3 Zrotation Yrotation Xrotation
								JOINT RightHand
								{
									OFFSET -0.000000 22.857611 -0.000000
									CHANNELS 3 Zrotation Yrotation Xrotation
									JOINT RightHandThumb1
									{
										OFFSET -2.867323 3.959563 2.944291
										CHANNELS 3 Zrotation Yrotation Xrotation
										JOINT RightHandThumb2
										{
											OFFSET 0.000000 3.350399 0.000000
											CHANNELS 3 Zrotation Yrotation Xrotation
											JOINT RightHandThumb3
											{
												OFFSET 0.000000 3.756509 0.000000
												CHANNELS 3 Zrotation Yrotation Xrotation
												JOINT RightHandThumb4
												{
													OFFSET 0.000000 3.147345 0.000000
													CHANNELS 3 Zrotation Yrotation Xrotation
													End Site
													{
														OFFSET 0.000000 0.000000 0.000000
													}
												}
											}
										}
									}
									JOINT RightHandIndex1
									{
										OFFSET -0.086752 10.030893 2.345280
										CHANNELS 3 Zrotation Yrotation Xrotation
										JOINT RightHandIndex2
										{
											OFFSET -0.000000 4.061090 -0.000000
											CHANNELS 3 Zrotation Yrotation Xrotation
											JOINT RightHandIndex3
											{
												OFFSET 0.000000 3.248873 0.000000
												CHANNELS 3 Zrotation Yrotation Xrotation
												JOINT RightHandIndex4
												{
													OFFSET 0.000000 2.639709 0.000000
													CHANNELS 3 Zrotation Yrotation Xrotation
													End Site
													{
														OFFSET 0.000000 0.000000 0.000000
													}
												}
											}
										}
									}
									JOINT RightHandMiddle1
									{
										OFFSET 0.104102 9.502952 0.006768
										CHANNELS 3 Zrotation Yrotation Xrotation
										JOINT RightHandMiddle2
										{
											OFFSET -0.000000 4.568727 -0.000000
											CHANNELS 3 Zrotation Yrotation Xrotation
											JOINT RightHandMiddle3
											{
												OFFSET 0.000000 3.654981 0.000000
												CHANNELS 3 Zrotation Yrotation Xrotation
												JOINT RightHandMiddle4
												{
													OFFSET -0.000000 2.741236 0.000000
													CHANNELS 3 Zrotation Yrotation Xrotation
													End Site
													{
														OFFSET 0.000000 0.000000 0.000000
													}
												}
											}
										}
									}
									JOINT RightHandRing1
									{
										OFFSET 0.086752 8.921708 -2.267442
										CHANNELS 3 Zrotation Yrotation Xrotation
										JOINT RightHandRing2
										{
											OFFSET 0.000000 4.061090 -0.000000
											CHANNELS 3 Zrotation Yrotation Xrotation
											JOINT RightHandRing3
											{
												OFFSET 0.000000 3.654981 -0.000000
												CHANNELS 3 Zrotation Yrotation Xrotation
												JOINT RightHandRing4
												{
													OFFSET 0.000000 2.741236 0.000000
													CHANNELS 3 Zrotation Yrotation Xrotation
													End Site
													{
														OFFSET 0.000000 0.000000 0.000000
													}
												}
											}
										}
									}
									JOINT RightHandPinky1
									{
										OFFSET -0.173504 7.976997 -4.467199
										CHANNELS 3 Zrotation Yrotation Xrotation
										JOINT RightHandPinky2
										{
											OFFSET -0.000000 3.350399 -0.000000
											CHANNELS 3 Zrotation Yrotation Xrotation
											JOINT RightHandPinky3
											{
												OFFSET 0.000000 2.842763 -0.000000
												CHANNELS 3 Zrotation Yrotation Xrotation
												JOINT RightHandPinky4
												{
													OFFSET -0.000000 2.639709 0.000000
													CHANNELS 3 Zrotation Yrotation Xrotation
													End Site
													{
														OFFSET 0.000000 0.000000 0.000000
													}
												}
											}
										}
									}
									JOINT RightForeArmEnd
									{
										OFFSET 0.000000 0.000000 0.000000
										CHANNELS 3 Zrotation Yrotation Xrotation
										End Site
										{
											OFFSET 0.000000 0.000000 0.000000
										}
									}
								}
								JOINT RightArmEnd
								{
									OFFSET 0.000000 0.000000 0.000000
									CHANNELS 3 Zrotation Yrotation Xrotation
									End Site
									{
										OFFSET 0.000000 0.000000 0.000000
									}
								}
							}
						}
					}
					JOINT LeftShoulder
					{
						OFFSET 2.625389 11.175210 0.000000
						CHANNELS 3 Zrotation Yrotation Xrotation
						JOINT LeftArm
						{
							OFFSET 0.000000 10.813635 0.000000
							CHANNELS 3 Zrotation Yrotation Xrotation
							JOINT LeftForeArm
							{
								OFFSET 0.000000 28.724781 -0.000000
								CHANNELS 3 Zrotation Yrotation Xrotation
								JOINT LeftHand
								{
									OFFSET 0.644384 25.716167 -0.328871
									CHANNELS 3 Zrotation Yrotation Xrotation
									JOINT LeftHandThumb1
									{
										OFFSET 2.867323 3.959563 2.944291
										CHANNELS 3 Zrotation Yrotation Xrotation
										JOINT LeftHandThumb2
										{
											OFFSET -0.000000 3.350399 0.000000
											CHANNELS 3 Zrotation Yrotation Xrotation
											JOINT LeftHandThumb3
											{
												OFFSET 0.000000 3.756509 -0.000000
												CHANNELS 3 Zrotation Yrotation Xrotation
												JOINT LeftHandThumb4
												{
													OFFSET 0.000000 3.100000 -0.000000
													CHANNELS 3 Zrotation Yrotation Xrotation
													End Site
													{
														OFFSET 0.000000 0.000000 0.000000
													}
												}
											}
										}
									}
									JOINT LeftHandIndex1
									{
										OFFSET 0.086752 10.030893 2.345280
										CHANNELS 3 Zrotation Yrotation Xrotation
										JOINT LeftHandIndex2
										{
											OFFSET -0.000000 4.061090 0.000000
											CHANNELS 3 Zrotation Yrotation Xrotation
											JOINT LeftHandIndex3
											{
												OFFSET 0.000000 3.248873 -0.000000
												CHANNELS 3 Zrotation Yrotation Xrotation
												JOINT LeftHandIndex4
												{
													OFFSET 0.000000 2.639709 0.000000
													CHANNELS 3 Zrotation Yrotation Xrotation
													End Site
													{
														OFFSET 0.000000 0.000000 0.000000
													}
												}
											}
										}
									}
									JOINT LeftHandMiddle1
									{
										OFFSET -0.104102 9.502952 0.006768
										CHANNELS 3 Zrotation Yrotation Xrotation
										JOINT LeftHandMiddle2
										{
											OFFSET 0.000000 4.568727 -0.000000
											CHANNELS 3 Zrotation Yrotation Xrotation
											JOINT LeftHandMiddle3
											{
												OFFSET -0.000000 3.654981 0.000000
												CHANNELS 3 Zrotation Yrotation Xrotation
												JOINT LeftHandMiddle4
												{
													OFFSET -0.000000 2.741236 0.000000
													CHANNELS 3 Zrotation Yrotation Xrotation
													End Site
													{
														OFFSET 0.000000 0.000000 0.000000
													}
												}
											}
										}
									}
									JOINT LeftHandRing1
									{
										OFFSET -0.086752 8.921708 -2.267442
										CHANNELS 3 Zrotation Yrotation Xrotation
										JOINT LeftHandRing2
										{
											OFFSET 0.000000 4.061090 0.000000
											CHANNELS 3 Zrotation Yrotation Xrotation
											JOINT LeftHandRing3
											{
												OFFSET -0.000000 3.654981 0.000000
												CHANNELS 3 Zrotation Yrotation Xrotation
												JOINT LeftHandRing4
												{
													OFFSET 0.000000 2.741236 -0.000000
													CHANNELS 3 Zrotation Yrotation Xrotation
													End Site
													{
														OFFSET 0.000000 0.000000 0.000000
													}
												}
											}
										}
									}
									JOINT LeftHandPinky1
									{
										OFFSET 0.173504 7.976997 -4.467199
										CHANNELS 3 Zrotation Yrotation Xrotation
										JOINT LeftHandPinky2
										{
											OFFSET -0.000000 3.350399 0.000000
											CHANNELS 3 Zrotation Yrotation Xrotation
											JOINT LeftHandPinky3
											{
												OFFSET -0.000000 2.842763 0.000000
												CHANNELS 3 Zrotation Yrotation Xrotation
												JOINT LeftHandPinky4
												{
													OFFSET -0.000000 2.639709 0.000000
													CHANNELS 3 Zrotation Yrotation Xrotation
													End Site
													{
														OFFSET 0.000000 0.000000 0.000000
													}
												}
											}
										}
									}
									JOINT LeftForeArmEnd
									{
										OFFSET 0.000000 0.000000 0.000000
										CHANNELS 3 Zrotation Yrotation Xrotation
										End Site
										{
											OFFSET 0.000000 0.000000 0.000000
										}
									}
								}
								JOINT LeftArmEnd
								{
									OFFSET 0.000000 0.000000 0.000000
									CHANNELS 3 Zrotation Yrotation Xrotation
									End Site
									{
										OFFSET 0.000000 0.000000 0.000000
									}
								}
							}
						}
					}
				}
			}
		}
	}
	JOINT RightUpLeg
	{
		OFFSET -11.289943 -0.000000 -0.000000
		CHANNELS 3 Zrotation Yrotation Xrotation
		JOINT RightLeg
		{
			OFFSET -0.000000 -38.200325 -0.000000
			CHANNELS 3 Zrotation Yrotation Xrotation
			JOINT RightFoot
			{
				OFFSET 0.000000 -39.900856 -0.000000
				CHANNELS 3 Zrotation Yrotation Xrotation
				JOINT RightToeBase
				{
					OFFSET -0.000000 0.000000 15.261641
					CHANNELS 3 Zrotation Yrotation Xrotation
					JOINT RightToeBaseEnd
					{
						OFFSET -0.000000 -0.000000 7.370709
						CHANNELS 3 Zrotation Yrotation Xrotation
						End Site
						{
							OFFSET 0.000000 0.000000 0.000000
						}
					}
				}
				JOINT RightLegEnd
				{
					OFFSET 0.000000 0.000000 0.000000
					CHANNELS 3 Zrotation Yrotation Xrotation
					End Site
					{
						OFFSET 0.000000 0.000000 0.000000
					}
				}
			}
			JOINT RightUpLegEnd
			{
				OFFSET 0.000000 0.000000 0.000000
				CHANNELS 3 Zrotation Yrotation Xrotation
				End Site
				{
					OFFSET 0.000000 0.000000 0.000000
				}
			}
		}
	}
	JOINT LeftUpLeg
	{
		OFFSET 11.315661 0.000000 0.000000
		CHANNELS 3 Zrotation Yrotation Xrotation
		JOINT LeftLeg
		{
			OFFSET -0.000000 -38.200325 -0.000000
			CHANNELS 3 Zrotation Yrotation Xrotation
			JOINT LeftFoot
			{
				OFFSET -0.000000 -39.900856 0.000000
				CHANNELS 3 Zrotation Yrotation Xrotation
				JOINT LeftToeBase
				{
					OFFSET -0.000000 0.000000 15.261641
					CHANNELS 3 Zrotation Yrotation Xrotation
					JOINT LeftToeBaseEnd
					{
						OFFSET 0.000000 -0.000000 7.539996
						CHANNELS 3 Zrotation Yrotation Xrotation
						End Site
						{
							OFFSET 0.000000 0.000000 0.000000
						}
					}
				}
				JOINT LeftLegEnd
				{
					OFFSET 0.000000 0.000000 0.000000
					CHANNELS 3 Zrotation Yrotation Xrotation
					End Site
					{
						OFFSET 0.000000 0.000000 0.000000
					}
				}
			}
			JOINT LeftUpLegEnd
			{
				OFFSET 0.000000 0.000000 0.000000
				CHANNELS 3 Zrotation Yrotation Xrotation
				End Site
				{
					OFFSET 0.000000 0.000000 0.000000
				}
			}
		}
	}
}
MOTION
Frames: 5
Frame Time: 0.016667
1.277878 86.131134 4.395954 0.129775 0.013340 -5.869165 -5.596023 2.387656 9.153176 16.806475 -2.095777 -13.231113 -20.643339 10.570417 14.913432 4.424468 -0.230067 -2.019994 -9.628819 -0.383951 12.906720 3.537611 -1.611399 -6.184879 0.803773 -4.014138 -25.915470 0.000000 0.000000 0.000000 96.653275 -0.325504 2.684736 69.451965 -28.478806 -10.487682 1.849503 4.313538 34.849842 1.875342 28.881306 -16.070776 9.142711 -1.696615 40.542110 0.000000 0.000000 -22.320000 0.000000 0.000000 -15.500000 0.000000 0.000000 0.000000 8.236481 16.298693 -16.984619 8.836840 -0.793053 -2.678092 8.836039 0.195078 -2.524478 0.000000 0.000000 0.000000 11.984179 6.689747 -17.202896 9.781648 -0.897933 -1.192921 9.780434 0.088183 -1.023035 0.000000 0.000000 0.000000 19.016518 -8.665435 -15.794949 11.521459 1.818094 1.803974 11.515616 -0.141634 1.404580 0.000000 0.000000 0.000000 25.016289 -25.096186 -16.205648 11.683257 3.438653 5.494041 11.662339 -0.478687 4.684640 0.000000 0.000000 0.000000 0.000000 0.000000 0.000000 0.000000 0.000000 0.000000 -96.370758 0.361031 2.339926 -56.617863 25.828083 -4.733569 -8.808445 -24.472410 49.904881 4.194004 -10.502349 -16.954149 -10.039282 1.787270 40.137463 0.000001 0.000000 -24.480000 0.000000 0.000000 -16.999998 0.000000 0.000000 0.000000 -16.167120 16.795223 -9.166039 -9.080056 -0.781522 2.751247 -9.079264 0.205948 2.593441 0.000000 0.000000 0.000000 -15.616378 6.887821 -10.321548 -10.001205 -0.893311 1.219432 -9.999973 0.092380 1.045774 0.000000 0.000000 0.000000 -15.106658 -8.852189 -10.482648 -11.633708 1.815665 -1.821308 -11.627794 -0.144398 -1.418078 0.000000 0.000000 0.000000 -12.269788 -25.357372 -13.666592 -11.829456 3.424530 -5.562030 -11.808468 -0.490736 -4.742640 0.000000 0.000000 0.000000 0.000000 0.000000 0.000000 0.000000 0.000000 0.000000 -10.842024 -2.868391 2.555911 -0.287802 -1.134191 14.310095 3.235005 1.409628 15.871897 -0.155852 0.176301 -28.035419 0.000000 0.000000 0.000000 0.000000 0.000000 0.000000 0.000000 0.000000 0.000000 7.412506 8.420816 11.080144 0.299055 1.393663 12.112372 -4.655056 13.642752 11.773707 0.753021 0.258856 -27.499306 0.000000 0.000000 0.000000 0.000000 0.000000 0.000000 0.000000 0.000000 0.000000 
0.925935 86.057350 4.392138 1.847592 0.230591 -9.538484 -2.802231 1.135141 7.111382 4.627439 -0.519358 -0.770294 -10.846194 6.587133 11.977274 1.737922 0.188066 -2.294053 -8.384255 -1.085148 11.531156 2.491708 -1.241425 -6.023767 -0.500572 -3.104465 -23.607397 0.000000 0.000000 0.000000 95.918823 -0.793710 2.172727 66.814148 -32.504539 -5.521461 1.118593 12.197812 35.096577 1.608672 27.356283 -15.849936 9.323642 -1.736781 40.455818 0.000010 0.000034 -23.064789 -0.000027 0.000042 -15.875449 0.000005 0.000000 -0.000015 7.340926 16.658432 -17.462929 8.083690 -0.781338 -2.360494 8.316042 0.180316 -2.277174 0.000000 -0.000002 -0.000034 10.968977 6.872623 -17.208900 9.079213 -0.903000 -1.058829 8.953330 0.099585 -0.914656 0.000032 -0.000049 0.000013 17.528885 -8.888346 -15.222039 11.172128 1.804765 1.545978 11.134624 -0.134527 1.220129 -0.000020 -0.000561 0.000008 23.519247 -25.333557 -14.802658 12.184081 3.445046 4.791973 11.964961 -0.450206 4.082895 0.000267 0.000004 -0.000013 0.000000 0.000000 0.000000 0.000000 0.000000 0.000000 -96.227837 0.662271 3.192900 -58.281345 23.721708 -3.886447 -4.797915 -21.207951 45.727695 3.502870 -9.241128 -16.047401 -10.034277 1.803310 40.106884 -0.000009 0.000033 -24.485146 -0.000064 -0.000028 -17.019958 0.000604 -0.000031 -0.000519 -14.068113 16.587584 -8.082800 -7.859939 -0.712489 2.629504 -8.095187 0.234357 2.452911 0.000014 0.000239 0.000005 -13.650477 6.857213 -9.692294 -8.915786 -0.892163 1.123589 -8.651293 0.089921 0.961392 -0.000585 -0.000056 -0.000097 -13.178654 -8.785197 -10.471581 -10.356749 1.830640 -1.615381 -10.309749 -0.122066 -1.260648 0.000859 0.000009 0.000006 -9.508437 -25.308285 -14.330338 -10.515459 3.477462 -4.500609 -10.458574 -0.381719 -3.818993 0.000065 -0.000001 -0.000047 0.000000 0.000000 0.000000 0.000000 0.000000 0.000000 -12.698988 -1.791757 6.169506 -0.352167 -1.099647 15.082962 2.920840 0.140497 15.594791 -0.099493 -0.130742 -26.815573 0.000000 0.000000 0.000000 0.000000 0.000000 0.000000 0.000000 0.000000 0.000000 6.127548 7.437386 15.425116 0.243199 1.145756 12.418135 -5.584286 15.942374 12.140316 0.876446 -0.097516 -28.348808 0.000000 0.000000 0.000000 0.000000 0.000000 0.000000 0.000000 0.000000 0.000000 
0.596161 86.071098 4.532440 1.515670 0.069903 -9.823359 -2.473381 1.061081 7.245547 4.282742 -0.460350 -0.654857 -10.244903 6.225022 11.940706 1.705074 0.157543 -2.103976 -8.181641 -1.121612 11.711567 2.601863 -1.153963 -5.900806 -0.468981 -3.149748 -23.637363 0.000000 0.000000 0.000000 95.772881 -0.736801 2.413909 66.493561 -32.780979 -5.153380 1.050096 12.346332 35.525513 1.331857 27.132086 -15.047814 9.409514 -1.739759 40.424843 -0.000002 0.000045 -23.270849 -0.000025 0.000041 -16.038584 0.000010 0.000001 -0.000021 7.883127 16.700064 -17.098806 8.300900 -0.766503 -2.376416 8.529387 0.196686 -2.298860 0.000002 0.000002 -0.000027 11.517331 6.885115 -16.884422 9.298261 -0.898931 -1.069589 9.167183 0.105890 -0.925255 0.000031 -0.000045 0.000004 18.117161 -8.890523 -14.958243 11.365984 1.796636 1.566487 11.352599 -0.144637 1.235467 -0.000024 -0.000792 0.000009 24.102013 -25.296228 -14.698578 12.363753 3.414062 4.865155 12.118769 -0.481713 4.143242 0.000351 0.000007 -0.000008 0.000000 0.000000 0.000000 0.000000 0.000000 0.000000 -96.416534 0.706551 3.167584 -58.648838 24.904001 -4.415877 -4.906482 -20.879904 44.988827 2.603091 -9.399801 -16.197208 -10.073461 1.802979 40.098240 -0.000012 0.000033 -24.558968 -0.000065 -0.000022 -17.065344 0.000909 -0.000028 -0.000381 -14.099119 16.650839 -8.192064 -7.942307 -0.706145 2.646972 -8.158029 0.242066 2.467155 0.000019 0.000191 0.000005 -13.560234 6.883963 -9.792604 -8.958601 -0.891176 1.132475 -8.692973 0.092278 0.967047 -0.000463 -0.000058 -0.000096 -12.898033 -8.805266 -10.574956 -10.262278 1.830056 -1.629534 -10.208920 -0.125593 -1.275868 0.001083 0.000011 0.000007 -9.081306 -25.310513 -14.465956 -10.298392 3.467178 -4.551722 -10.228028 -0.394982 -3.867238 0.000012 0.000008 -0.000061 0.000000 0.000000 0.000000 0.000000 0.000000 0.000000 -11.959664 -1.642499 6.529025 -0.332822 -1.060261 14.945808 2.541965 0.021792 15.646964 -0.110159 -0.127850 -26.664650 0.000000 0.000000 0.000000 0.000000 0.000000 0.000000 0.000000 0.000000 0.000000 6.629845 7.309401 15.648859 0.255276 1.170212 12.769546 -5.846169 16.179409 11.849401 0.907034 -0.081174 -28.269556 0.000000 0.000000 0.000000 0.000000 0.000000 0.000000 0.000000 0.000000 0.000000 
0.305867 86.066444 4.637312 1.272529 -0.074672 -10.000806 -2.221730 1.003357 7.281576 3.972625 -0.415705 -0.503610 -9.755429 5.920762 11.863543 1.689119 0.120673 -1.863359 -8.016102 -1.156739 11.809918 2.689485 -1.090245 -5.845495 -0.450027 -3.173478 -23.675072 0.000000 0.000000 0.000000 95.667511 -0.719972 2.553441 66.024437 -33.128620 -4.602077 0.965127 12.480472 36.198051 1.027663 26.292940 -14.511104 9.484416 -1.744448 40.392014 -0.000006 0.000047 -23.475037 -0.000026 0.000043 -16.197025 0.000009 -0.000000 -0.000019 8.536535 16.748438 -16.852221 8.619904 -0.747676 -2.407509 8.845193 0.217205 -2.331029 0.000003 -0.000002 -0.000026 12.134132 6.900854 -16.632219 9.608134 -0.892311 -1.086431 9.470459 0.113377 -0.939429 0.000027 -0.000029 0.000004 18.736622 -8.897207 -14.688835 11.621527 1.786127 1.590061 11.628433 -0.156275 1.252696 -0.000021 -0.000881 0.000012 24.645414 -25.255354 -14.495488 12.542136 3.379286 4.933686 12.283138 -0.517203 4.200640 0.000412 0.000006 -0.000008 0.000000 0.000000 0.000000 0.000000 0.000000 0.000000 -96.478172 0.741495 3.141320 -58.984547 25.997494 -4.871102 -5.009029 -20.430893 44.176704 1.578571 -9.415367 -16.393854 -10.132058 1.808083 40.076389 -0.000018 0.000031 -24.683762 -0.000061 -0.000020 -17.146484 0.001188 -0.000028 -0.000173 -14.262596 16.710957 -8.383452 -8.099049 -0.698038 2.663415 -8.287632 0.251562 2.482110 0.000020 0.000111 0.000009 -13.631518 6.906372 -9.955570 -9.079181 -0.888963 1.141285 -8.814612 0.095303 0.973492 -0.000392 -0.000060 -0.000085 -12.811503 -8.821339 -10.738388 -10.274042 1.826715 -1.645310 -10.223701 -0.130411 -1.289198 0.001263 0.000007 0.000007 -8.873754 -25.303301 -14.614079 -10.190824 3.452384 -4.601598 -10.120119 -0.410359 -3.909262 -0.000033 0.000006 -0.000064 0.000000 0.000000 0.000000 0.000000 0.000000 0.000000 -11.414957 -1.567088 6.682892 -0.320133 -1.028186 14.997851 2.316767 -0.084790 15.634913 -0.114509 -0.127201 -26.590822 0.000000 0.000000 0.000000 0.000000 0.000000 0.000000 0.000000 0.000000 0.000000 6.993382 7.255400 15.747369 0.265601 1.193188 13.026597 -6.026210 16.310265 11.648927 0.933609 -0.061106 -28.244730 0.000000 0.000000 0.000000 0.000000 0.000000 0.000000 0.000000 0.000000 0.000000 
0.037505 86.058174 4.719640 1.091142 -0.219476 -10.118555 -2.031533 0.955812 7.285517 3.708778 -0.382026 -0.355392 -9.344589 5.670649 11.801869 1.664881 0.087081 -1.623527 -7.922537 -1.205467 11.852806 2.752561 -1.066031 -5.822254 -0.439761 -3.194240 -23.714230 0.000000 0.000000 0.000000 95.560020 -0.722552 2.651071 65.565231 -33.346203 -3.975027 0.877452 12.576022 36.916939 0.677107 25.548784 -14.178977 9.560696 -1.749479 40.356510 -0.000009 0.000050 -23.690292 -0.000028 0.000046 -16.359760 0.000006 -0.000002 -0.000016 9.218243 16.795324 -16.645338 8.980384 -0.727257 -2.451247 9.199081 0.239345 -2.372795 0.000004 -0.000005 -0.000023 12.754863 6.916910 -16.397778 9.953727 -0.884728 -1.107238 9.806695 0.121163 -0.956821 0.000021 -0.000013 0.000004 19.334208 -8.904970 -14.411299 11.894768 1.775076 1.615913 11.915035 -0.167832 1.271751 -0.000018 -0.000957 0.000016 25.130255 -25.218010 -14.225828 12.726177 3.344195 5.000773 12.462703 -0.552542 4.256934 0.000459 0.000006 -0.000008 0.000000 0.000000 0.000000 0.000000 0.000000 0.000000 -96.432228 0.756550 3.133572 -59.447060 26.838360 -5.273091 -5.072837 -19.999424 43.547375 0.628730 -9.572997 -16.619480 -10.226373 1.817614 40.036182 -0.000024 0.000027 -24.902992 -0.000059 -0.000017 -17.291330 0.001406 -0.000028 -0.000054 -14.611206 16.759577 -8.534019 -8.319443 -0.687462 2.691698 -8.484104 0.263404 2.508928 0.000022 0.000012 0.000013 -13.902077 6.923526 -10.075937 -9.267454 -0.885438 1.154335 -9.007847 0.099289 0.984246 -0.000311 -0.000063 -0.000075 -12.949086 -8.830767 -10.876360 -10.367754 1.820936 -1.666608 -10.324326 -0.136388 -1.305604 0.001366 0.000001 0.000008 -8.902585 -25.283388 -14.737760 -10.176833 3.433953 -4.663924 -10.117737 -0.427619 -3.959636 -0.000060 0.000004 -0.000067 0.000000 0.000000 0.000000 0.000000 0.000000 0.000000 -10.996574 -1.581546 6.730363 -0.310749 -1.001374 15.133070 2.146745 -0.184544 15.596470 -0.121110 -0.128717 -26.565807 0.000000 0.000000 0.000000 0.000000 0.000000 0.000000 0.000000 0.000000 0.000000 7.274039 7.253575 15.780969 0.273994 1.208166 13.263935 -6.157636 16.337175 11.504210 0.953004 -0.037735 -28.237551 0.000000 0.000000 0.000000 0.000000 0.000000 0.000000 0.000000 0.000000 0.000000 
